# AST/ASF file generated using VICON BodyLanguage
# -----------------------------------------------
:version 1.10
:name VICON
:units
  mass 1.0
  length 0.45
  angle deg
:documentation
   .ast/.asf automatically generated from VICON data using
   VICON BodyBuilder and BodyLanguage model FoxedUp or BRILLIANT.MOD
:root
   order TX TY TZ RX RY RZ
   axis XYZ
   position 0 0 0  
   orientation 0 0 0 
:bonedata
  begin
     id 1 
     name lhipjoint
     direction 0.660183 -0.676772 0.325788 
     length 2.75133 
     axis 0 0 0  XYZ
  end
  begin
     id 2 
     name lfemur
     direction 0.34202 -0.939693 0  
     length 7.70317  
     axis 0 0 20  XYZ
    dof rx ry rz
    limits (-160.0 20.0)
           (-70.0 70.0)
           (-60.0 70.0)
  end
  begin
     id 3 
     name ltibia
     direction 0.342105 -0.939662 0   
     length 7.18701   
     axis 0 0 20   XYZ
    dof rx
    limits (-10.0 170.0)
  end
  begin
     id 4 
     name lfoot
     direction 0.14163 -0.389126 0.910232   
     length 2.41719   
     axis -90 7.62852e-016 20   XYZ
    dof rx rz
    limits (-45.0 90.0)
           (-70.0 20.0)
  end
  begin
     id 5 
     name ltoes
     direction 1.53533e-011 -4.21926e-011 1   
     length 1.18611   
     axis -90 7.62852e-016 20   XYZ
    dof rx
    limits (-90.0 20.0)
  end
  begin
     id 6 
     name rhipjoint
     direction -0.6658 -0.67229 0.323631   
     length 2.76968  
     axis 0 0 0  XYZ 
  end
  begin
     id 7 
     name rfemur
     direction -0.34202 -0.939693 0   
     length 7.92547   
     axis 0 0 -20   XYZ
    dof rx ry rz
    limits (-160.0 20.0)
           (-70.0 70.0)
           (-70.0 60.0)
  end
  begin
     id 8 
     name rtibia
     direction -0.342022 -0.939692 0   
     length 7.22641   
     axis 0 0 -20   XYZ
    dof rx
    limits (-10.0 170.0)
 end
 begin
     id 9 
     name rfoot
     direction -0.105675 -0.29034 0.951071   
     length 2.48149  
     axis -90 -7.62852e-016 -20   XYZ
    dof rx rz
    limits (-45.0 90.0)
           (-20.0 70.0)
  end
  begin
     id 10 
     name rtoes
     direction -1.5349e-011 -4.21859e-011 1   
     length 1.23343   
     axis -90 -7.62852e-016 -20   XYZ
    dof rx
    limits (-90.0 20.0)
  end
  begin
     id 11 
     name lowerback
     direction 0.0104173 0.993624 -0.112266   
     length 2.00527   
     axis 0 0 0   XYZ
    dof rx ry rz
    limits (-20.0 45.0)
           (-30.0 30.0)
           (-30.0 30.0)
  end
  begin
     id 12 
     name upperback
     direction 0.00733149 0.999856 -0.0152913   
     length 2.01385   
     axis 0 0 0   XYZ
    dof rx ry rz
    limits (-20.0 45.0)
           (-30.0 30.0)
           (-30.0 30.0)
  end
  begin
     id 13 
     name thorax
     direction 0.0026304 0.999318 0.036841   
     length 2.03734   
     axis 0 0 0   XYZ
    dof rx ry rz
    limits (-20.0 45.0)
           (-30.0 30.0)
           (-30.0 30.0)
  end
  begin
     id 14 
     name lowerneck
     direction 0.0293154 0.998757 0.0403082   
     length 1.65303   
     axis 0 0 0   XYZ
    dof rx ry rz
    limits (-20.0 45.0)
           (-30.0 30.0)
           (-30.0 30.0)
  end
  begin
     id 15 
     name upperneck
     direction -0.0376619 0.998184 -0.0470083   
     length 1.60926   
     axis 0 0 0   XYZ
    dof rx ry rz
    limits (-20.0 45.0)
           (-30.0 30.0)
           (-30.0 30.0)
  end
  begin
     id 16
     name head
     direction -0.0170133 0.999635 -0.0209778  
     length 1.73625  
     axis 0 0 0   XYZ
    dof rx ry rz
    limits (-20.0 45.0)
           (-30.0 30.0)
           (-30.0 30.0)
  end
  begin
     id 17 
     name lclavicle
     direction 0.919857 0.39181 -0.0186333  
     length 3.75313  
     axis 0 0 0   XYZ
    dof ry rz
    limits (-20.0 10.0)
           (0.0 20.0)
  end
  begin
     id 18 
     name lhumerus
     direction 1 -4.48988e-011 1.44029e-027   
     length 5.49313   
     axis 180 -30 -90   XYZ
    dof rx ry rz
    limits (-60.0 90.0)
           (-90.0 90.0)
           (-90.0 90.0)
  end
  begin
     id 19
     name lradius
     direction 1 -4.48924e-011 7.46281e-027   
     length 3.29037   
     axis 180 -30 -90   XYZ
    dof rx
    limits (-10.0 170.0)
  end
  begin
     id 20
     name lwrist
     direction 1 -4.48955e-011 2.19879e-026   
     length 1.64519   
     axis -1.34358e-014 90 90   XYZ
    dof ry
    limits (-180.0 0.0)
 end
  begin
     id 21 
     name lhand
     direction 1 -4.48978e-011 4.39747e-026   
     length 0.729656   
     axis -2.80598e-014 90 90   XYZ
    dof rx rz
    limits (-90.0 90.0)
           (-45.0 45.0)
  end
  begin
     id 22 
     name lfingers
     direction 1 -4.49071e-011 8.79411e-026   
     length 0.588268   
     axis -5.61193e-014 90 90   XYZ
    dof rx
    limits (0.0 90.0)
  end
  begin
     id 23
     name lthumb
     direction 0.707107 -6.34817e-011 0.707107   
     length 0.844638   
     axis -90 45 -9.86923e-015   XYZ
    dof rx rz
    limits (-45.0 45.0)
           (-45.0 45.0)
  end
  begin
     id 24 
     name rclavicle
     direction -0.919898 0.388279 0.0550233   
     length 3.7171  
     axis 0 0 0   XYZ 
    dof ry rz
    limits (-10.0 20.0)
           (-20.0 0.0)
  end
  begin
     id 25 
     name rhumerus
     direction -1 -4.48968e-011 9.98372e-028  
     length 5.23684   
     axis 180 30 90   XYZ
    dof rx ry rz
    limits (-90.0 60.0)
           (-90.0 90.0)
           (-90.0 90.0)
  end
  begin
     id 26 
     name rradius
     direction -1 -4.48956e-011 1.01023e-026   
     length 3.38251   
     axis 180 30 90   XYZ
    dof rx
    limits (-10.0 170.0)
  end
  begin
     id 27 
     name rwrist
     direction -1 -4.4892e-011 2.19886e-026   
     length 1.69126   
     axis -1.34358e-014 -90 -90   XYZ
    dof ry
    limits (-180.0 0.0)
  end
  begin
     id 28
     name rhand
     direction -1 -4.49024e-011 4.39727e-026   
     length 0.691454   
     axis -2.80598e-014 -90 -90   XYZ
    dof rx rz
    limits (-90.0 90.0)
           (-45.0 45.0)
  end
  begin
     id 29
     name rfingers
     direction -1 -4.49097e-011 8.79388e-026   
     length 0.557468   
     axis -5.61193e-014 -90 -90   XYZ
    dof rx
    limits (0.0 90.0)
  end
  begin
     id 30
     name rthumb
     direction -0.707107 -6.34938e-011 0.707107   
     length 0.800416   
     axis -90 -45 9.86923e-015   XYZ
    dof rx rz
    limits (-45.0 45.0)
           (-45.0 45.0)
  end
:hierarchy
  begin
    root lhipjoint rhipjoint lowerback
    lhipjoint lfemur
    lfemur ltibia
    ltibia lfoot
    lfoot ltoes
    rhipjoint rfemur
    rfemur rtibia
    rtibia rfoot
    rfoot rtoes
    lowerback upperback
    upperback thorax
    thorax lowerneck lclavicle rclavicle
    lowerneck upperneck
    upperneck head
    lclavicle lhumerus
    lhumerus lradius
    lradius lwrist
    lwrist lhand lthumb
    lhand lfingers
    rclavicle rhumerus
    rhumerus rradius
    rradius rwrist
    rwrist rhand rthumb
    rhand rfingers
  end

#!OML:ASF H:\BabyWalks\Project 1\Capture day 1\Session 1\baby.ASF
:FULLY-SPECIFIED
:DEGREES
221
root -25.4677 17.3678 -2.28384 -10.9022 81.3078 -17.6136
lowerback 19.1701 1.52469 4.55339
upperback 5.30696 3.43662 3.80548
thorax -4.96778 1.79498 0.678715
lowerneck -1.86706 1.18804 10.384
upperneck -4.16326 1.19732 -18.2522
head -0.682108 0.728194 -7.31842
rclavicle 5.64548e-014 3.18055e-014
rhumerus -43.5379 12.9305 -81.634
rradius 45.532
rwrist -1.62857
rhand -20.9024 -19.8954
rfingers 7.12502
rthumb 5.46855 -49.8048
lclavicle 5.64548e-014 3.18055e-014
lhumerus -55.4003 -7.86653 84.87
lradius 43.145
lwrist -3.98875
lhand 9.96481 8.76593
lfingers 7.12502
lthumb 35.093 35.3002
rfemur -3.1506 15.2346 22.3448
rtibia 26.2577
rfoot -26.1925 -0.660773
rtoes -4.86937
lfemur -31.8458 3.42637 -12.8176
ltibia 60.333
lfoot -23.1372 -15.4802
ltoes -7.91999
222
root -25.3163 17.4006 -2.28024 -10.9418 81.5151 -17.8894
lowerback 19.1748 1.58812 4.55053
upperback 5.20621 3.50139 3.60122
thorax -5.06402 1.8194 0.445798
lowerneck -2.02479 1.30739 10.2466
upperneck -3.94533 1.37824 -17.855
head -0.57298 0.798639 -7.15981
rclavicle -2.26615e-014 1.59028e-015
rhumerus -43.7823 13.081 -81.9213
rradius 46.2229
rwrist -2.3871
rhand -21.0461 -19.7182
rfingers 7.12502
rthumb 5.32986 -49.6312
lclavicle -2.26615e-014 1.59028e-015
lhumerus -55.6616 -8.06357 84.4174
lradius 43.1938
lwrist -4.07429
lhand 10.3841 8.82594
lfingers 7.12502
lthumb 35.4905 35.266
rfemur -2.24597 14.8919 22.3612
rtibia 24.9821
rfoot -25.5331 -0.595369
rtoes -5.03104
lfemur -32.5175 2.86783 -12.8909
ltibia 58.2657
lfoot -23.4405 -14.8904
ltoes -7.8832
223
root -25.1628 17.4322 -2.27679 -11.1348 81.7097 -18.3386
lowerback 19.151 1.64815 4.54667
upperback 5.10615 3.55874 3.39185
thorax -5.14385 1.84033 0.21078
lowerneck -2.17405 1.42721 10.0972
upperneck -3.74597 1.55678 -17.4102
head -0.472742 0.868867 -6.98443
rclavicle 2.8625e-014 4.45278e-014
rhumerus -44.0374 13.2555 -82.2147
rradius 46.921
rwrist -3.12766
rhand -20.9709 -19.3739
rfingers 7.12502
rthumb 5.40249 -49.2851
lclavicle 2.8625e-014 4.45278e-014
lhumerus -55.9054 -8.26166 83.9404
lradius 43.3028
lwrist -4.05426
lhand 10.5937 8.84845
lfingers 7.12502
lthumb 35.6892 35.2407
rfemur -1.34074 14.4881 22.3919
rtibia 23.6556
rfoot -24.7976 -0.480458
rtoes -5.25395
lfemur -33.1378 2.31305 -12.9074
ltibia 56.1025
lfoot -23.6889 -14.3627
ltoes -7.8468
224
root -25.0074 17.4612 -2.2738 -11.4296 81.8778 -18.9046
lowerback 19.1007 1.70909 4.53382
upperback 5.01138 3.61284 3.17603
thorax -5.20377 1.86008 -0.0240813
lowerneck -2.31287 1.54294 9.93106
upperneck -3.57414 1.72603 -16.9103
head -0.385535 0.935854 -6.78952
rclavicle 2.34566e-014 1.19271e-014
rhumerus -44.2886 13.4482 -82.5097
rradius 47.609
rwrist -3.85542
rhand -20.7044 -18.8782
rfingers 7.12502
rthumb 5.65971 -48.7826
lclavicle 2.34566e-014 1.19271e-014
lhumerus -56.1206 -8.45409 83.4364
lradius 43.47
lwrist -3.91685
lhand 10.6445 8.86051
lfingers 7.12502
lthumb 35.7374 35.2411
rfemur -0.477549 14.0437 22.427
rtibia 22.3748
rfoot -24.0369 -0.30928
rtoes -5.53307
lfemur -33.6992 1.76963 -12.8735
ltibia 53.9065
lfoot -23.9131 -13.8508
ltoes -7.874
225
root -24.8502 17.4876 -2.27102 -11.8092 82.0149 -19.5665
lowerback 19.0224 1.7734 4.50895
upperback 4.92193 3.66614 2.95165
thorax -5.24282 1.87996 -0.259665
lowerneck -2.42604 1.64639 9.74431
upperneck -3.43697 1.87526 -16.3416
head -0.317775 0.994918 -6.5706
rclavicle 1.78906e-014 -3.18055e-015
rhumerus -44.5411 13.6505 -82.8098
rradius 48.2856
rwrist -4.56971
rhand -20.281 -18.2767
rfingers 7.12502
rthumb 6.06853 -48.1697
lclavicle 1.78906e-014 -3.18055e-015
lhumerus -56.3023 -8.64214 82.9012
lradius 43.6846
lwrist -3.67881
lhand 10.5763 8.87246
lfingers 7.12502
lthumb 35.6727 35.2687
rfemur 0.337384 13.588 22.4679
rtibia 21.1669
rfoot -23.2682 -0.0972668
rtoes -5.89269
lfemur -34.1992 1.24965 -12.7927
ltibia 51.7207
lfoot -24.1057 -13.3345
ltoes -7.91834
226
root -24.6913 17.5108 -2.26849 -12.2794 82.1086 -20.3228
lowerback 18.9191 1.84201 4.46958
upperback 4.84509 3.72006 2.72131
thorax -5.25514 1.90113 -0.491937
lowerneck -2.5215 1.73493 9.52484
upperneck -3.33762 2.00092 -15.6923
head -0.269746 1.04412 -6.32237
rclavicle 6.95746e-014 1.11319e-014
rhumerus -44.7775 13.8574 -83.1089
rradius 48.9403
rwrist -5.26889
rhand -19.7288 -17.6203
rfingers 7.12502
rthumb 6.60158 -47.4974
lclavicle 6.95746e-014 1.11319e-014
lhumerus -56.4321 -8.81479 82.3315
lradius 43.9349
lwrist -3.35547
lhand 10.4435 8.88655
lfingers 7.12502
lthumb 35.5469 35.3131
rfemur 1.09348 13.15 22.5195
rtibia 20.0697
rfoot -22.5064 0.154936
rtoes -6.33823
lfemur -34.631 0.77532 -12.6667
ltibia 49.5985
lfoot -24.2678 -12.7794
ltoes -8.00892
227
root -24.5312 17.5307 -2.26598 -12.8205 82.1474 -21.1413
lowerback 18.8033 1.91874 4.41068
upperback 4.78255 3.77976 2.48487
thorax -5.24565 1.92623 -0.719709
lowerneck -2.60129 1.80433 9.25635
upperneck -3.26562 2.09926 -14.9393
head -0.239017 1.08117 -6.03516
rclavicle 2.82274e-014 -3.02153e-014
rhumerus -44.9993 14.0756 -83.4163
rradius 49.5615
rwrist -5.96081
rhand -19.1008 -16.9621
rfingers 7.12502
rthumb 7.20782 -46.8193
lclavicle 2.82274e-014 -3.02153e-014
lhumerus -56.5072 -8.97299 81.7275
lradius 44.2082
lwrist -2.97774
lhand 10.2811 8.92476
lfingers 7.12502
lthumb 35.3929 35.3882
rfemur 1.78758 12.7573 22.586
rtibia 19.1143
rfoot -21.7559 0.441924
rtoes -6.86837
lfemur -34.9845 0.362612 -12.5014
ltibia 47.5918
lfoot -24.3872 -12.1622
ltoes -8.10917
228
root -24.3703 17.5469 -2.26393 -13.4476 82.1014 -22.0337
lowerback 18.6979 2.00966 4.35
upperback 4.72385 3.85796 2.23812
thorax -5.23559 1.9605 -0.961446
lowerneck -2.65705 1.84958 8.94003
upperneck -3.21572 2.16519 -14.0734
head -0.225924 1.10354 -5.70718
rclavicle -1.39149e-014 5.56597e-015
rhumerus -45.2176 14.2829 -83.7382
rradius 50.1394
rwrist -6.62756
rhand -18.4277 -16.3458
rfingers 7.12502
rthumb 7.85753 -46.1798
lclavicle -1.39149e-014 5.56597e-015
lhumerus -56.5346 -9.1236 81.0851
lradius 44.4912
lwrist -2.57403
lhand 10.1098 8.97202
lfingers 7.12502
lthumb 35.2304 35.474
rfemur 2.39349 12.4267 22.6741
rtibia 18.3485
rfoot -21.0358 0.777283
rtoes -7.50135
lfemur -35.2631 0.0373227 -12.2915
ltibia 45.7534
lfoot -24.4346 -11.4679
ltoes -8.1814
229
root -24.2084 17.5601 -2.26173 -14.1545 81.9823 -22.9754
lowerback 18.6022 2.10995 4.26745
upperback 4.68567 3.94564 1.99225
thorax -5.20915 2.00082 -1.1915
lowerneck -2.70104 1.87178 8.57077
upperneck -3.19624 2.20025 -13.1043
head -0.229985 1.11209 -5.34116
rclavicle 1.66979e-014 1.59028e-014
rhumerus -45.4086 14.4981 -84.0657
rradius 50.6654
rwrist -7.27184
rhand -17.7456 -15.8072
rfingers 7.12502
rthumb 8.51581 -45.6155
lclavicle 1.66979e-014 1.59028e-014
lhumerus -56.4911 -9.24793 80.4141
lradius 44.7692
lwrist -2.16155
lhand 9.95872 9.03162
lfingers 7.12502
lthumb 35.0872 35.5673
rfemur 2.91073 12.166 22.7891
rtibia 17.814
rfoot -20.3495 1.15523
rtoes -8.17097
lfemur -35.4515 -0.193372 -12.052
ltibia 44.1242
lfoot -24.3911 -10.7331
ltoes -8.1489
230
root -24.0461 17.569 -2.25969 -14.8983 81.7794 -23.9179
lowerback 18.5255 2.22202 4.16782
upperback 4.6678 4.04736 1.74424
thorax -5.17081 2.0493 -1.41717
lowerneck -2.7343 1.86657 8.15494
upperneck -3.20275 2.20002 -12.0347
head -0.249428 1.10439 -4.93967
rclavicle 7.55382e-015 -3.18055e-015
rhumerus -45.5681 14.7116 -84.4022
rradius 51.1296
rwrist -7.89069
rhand -17.0925 -15.378
rfingers 7.12502
rthumb 9.14609 -45.1597
lclavicle 7.55382e-015 -3.18055e-015
lhumerus -56.3708 -9.35524 79.7193
lradius 45.0255
lwrist -1.74714
lhand 9.8214 9.10855
lfingers 7.12502
lthumb 34.9569 35.6747
rfemur 3.31529 11.9613 22.9248
rtibia 17.5677
rfoot -19.7141 1.59107
rtoes -8.87441
lfemur -35.5431 -0.32308 -11.7899
ltibia 42.7355
lfoot -24.2269 -9.99224
ltoes -8.006
231
root -23.8835 17.5747 -2.25745 -15.6459 81.5027 -24.8211
lowerback 18.4693 2.34094 4.03595
upperback 4.67584 4.15463 1.50066
thorax -5.11732 2.1023 -1.62109
lowerneck -2.77161 1.84528 7.71687
upperneck -3.23421 2.17983 -10.9029
head -0.278243 1.08774 -4.51855
rclavicle -5.68524e-014 -1.63003e-014
rhumerus -45.6801 14.9317 -84.741
rradius 51.5199
rwrist -8.47158
rhand -16.4978 -15.063
rfingers 7.12502
rthumb 9.7199 -44.8187
lclavicle -5.68524e-014 -1.63003e-014
lhumerus -56.1649 -9.43043 79.0107
lradius 45.2452
lwrist -1.33028
lhand 9.69302 9.20519
lfingers 7.12502
lthumb 34.8351 35.7996
rfemur 3.58549 11.7992 23.0759
rtibia 17.6686
rfoot -19.1422 2.08866
rtoes -9.6499
lfemur -35.5446 -0.343506 -11.525
ltibia 41.6016
lfoot -23.9019 -9.32575
ltoes -7.79117
